<svg width="1200" height="630" viewBox="0 0 1200 630" xmlns="http://www.w3.org/2000/svg">
  <defs>
    <radialGradient id="bg" cx="68%" cy="48%" r="72%">
      <stop offset="0%" stop-color="#131c2e" />
      <stop offset="62%" stop-color="#0c1018" />
      <stop offset="100%" stop-color="#070708" />
    </radialGradient>
    <radialGradient id="core" cx="50%" cy="50%" r="50%">
      <stop offset="0%" stop-color="#ffffff" />
      <stop offset="55%" stop-color="#e8eef6" />
      <stop offset="100%" stop-color="#aab6c8" />
    </radialGradient>
    <radialGradient id="coreGlow" cx="50%" cy="50%" r="50%">
      <stop offset="0%" stop-color="#cfe0f4" stop-opacity="0.55" />
      <stop offset="100%" stop-color="#cfe0f4" stop-opacity="0" />
    </radialGradient>
  </defs>

  <rect width="1200" height="630" fill="url(#bg)" />

  <!-- spiral galaxy — favicon 과 동일한 로그 스파이럴 공식, 우측에 확대 배치 -->
  <g transform="translate(566, 27) scale(18)">
    <g fill="none" stroke="#51616b" stroke-width="0.8" stroke-linecap="round" opacity="0.45">
      <path d="M 16 16 C 22 20, 20 26, 11.6 29.3" />
      <path d="M 16 16 C 10 17, 6 11, 6.5 5.8" />
      <path d="M 16 16 C 19 10, 26 10, 29.8 13" />
    </g>
    <g>
      <circle cx="20.5" cy="21.8" r="1.5" fill="#cbd5e1" />
      <circle cx="17.1" cy="26.6" r="1" fill="#f59e0b" />
      <circle cx="11.6" cy="29.3" r="0.6" fill="#94a3b8" />
      <circle cx="8.7" cy="17" r="1.5" fill="#06b6d4" />
      <circle cx="6.2" cy="11.7" r="1" fill="#cbd5e1" />
      <circle cx="6.5" cy="5.8" r="0.6" fill="#94a3b8" />
      <circle cx="18.8" cy="9.2" r="1.5" fill="#8b5cf6" />
      <circle cx="24.7" cy="9.8" r="1" fill="#cbd5e1" />
      <circle cx="29.8" cy="13" r="0.6" fill="#94a3b8" />
    </g>
    <circle cx="16" cy="16" r="6" fill="url(#coreGlow)" />
    <circle cx="16" cy="16" r="2.6" fill="url(#core)" />
  </g>

  <!-- 좌측 텍스트 -->
  <text x="96" y="300" font-family="ui-sans-serif, system-ui, -apple-system, 'Segoe UI', Roboto, sans-serif"
        font-size="104" font-weight="700" letter-spacing="-4" fill="#f1f5f9">jdgrid</text>
  <text x="100" y="368" font-family="ui-sans-serif, system-ui, -apple-system, 'Segoe UI', Roboto, sans-serif"
        font-size="42" font-weight="400" letter-spacing="-0.5" fill="#9aa7b8">Welcome to my galaxy</text>
  <text x="100" y="420" font-family="ui-sans-serif, system-ui, -apple-system, 'Segoe UI', Roboto, sans-serif"
        font-size="24" font-weight="500" letter-spacing="2" fill="#5b6675">OPEN DEV TOOLS &amp; EXPERIMENTS</text>
</svg>
